<?xml version="1.0" encoding="UTF-8" standalone="no"?>
<svg
   xmlns:dc="http://purl.org/dc/elements/1.1/"
   xmlns:cc="http://creativecommons.org/ns#"
   xmlns:rdf="http://www.w3.org/1999/02/22-rdf-syntax-ns#"
   xmlns:svg="http://www.w3.org/2000/svg"
   xmlns="http://www.w3.org/2000/svg"
   xmlns:sodipodi="http://sodipodi.sourceforge.net/DTD/sodipodi-0.dtd"
   xmlns:inkscape="http://www.inkscape.org/namespaces/inkscape"
   width="750.36603"
   height="285.57501"
   viewBox="0 0 600.29283 228.46002"
   version="1.1"
   id="svg2"
   inkscape:version="0.91 r13725"
   sodipodi:docname="Technicolor_logo.svg">
  <metadata
     id="metadata118">
    <rdf:RDF>
      <cc:Work
         rdf:about="">
        <dc:format>image/svg+xml</dc:format>
        <dc:type
           rdf:resource="http://purl.org/dc/dcmitype/StillImage" />
        <dc:title></dc:title>
      </cc:Work>
    </rdf:RDF>
  </metadata>
  <defs
     id="defs116" />
  <sodipodi:namedview
     pagecolor="#ffffff"
     bordercolor="#666666"
     borderopacity="1"
     objecttolerance="10"
     gridtolerance="10"
     guidetolerance="10"
     inkscape:pageopacity="0"
     inkscape:pageshadow="2"
     inkscape:window-width="1920"
     inkscape:window-height="1017"
     id="namedview114"
     showgrid="false"
     units="px"
     inkscape:zoom="0.40816327"
     inkscape:cx="428.75"
     inkscape:cy="196.25"
     inkscape:window-x="-8"
     inkscape:window-y="-8"
     inkscape:window-maximized="1"
     inkscape:current-layer="svg2" />
  <g
     id="g3446"
     transform="translate(-42.86705,-42.77001)">
    <g
       id="#6d6e72ff">
      <path
         id="path6"
         d="m 237.78,42.8 c 3.25,-0.01 6.51,-0.01 9.77,-0.01 0.05,15.17 -0.05,30.34 0.04,45.52 4.2,-3.26 8.57,-6.59 13.88,-7.74 6.97,-1.65 15.14,0.41 19.61,6.26 2.71,4.15 3.17,9.3 3.13,14.13 -0.08,10.58 0.05,21.15 -0.07,31.73 -3.24,0.04 -6.47,0.02 -9.7,0.03 0.02,-10.58 0,-21.15 0.03,-31.73 -0.01,-3.35 -0.36,-7.08 -2.83,-9.6 -3.69,-4.1 -10.17,-3.76 -14.76,-1.5 -3.39,1.75 -7.15,3.57 -9.21,6.9 -0.28,11.96 -0.03,23.95 -0.1,35.92 -3.27,0.01 -6.53,0.01 -9.79,0.01 -0.03,-29.97 -0.02,-59.95 0,-89.92 z"
         inkscape:connector-curvature="0"
         style="opacity:1;fill:#6d6e72" />
      <path
         id="path8"
         d="m 496.82,42.8 c 3.24,-0.01 6.48,-0.01 9.73,-0.03 0.12,29.98 0.01,59.96 0.05,89.95 -3.25,0 -6.51,0 -9.76,0 -0.04,-29.97 -0.01,-59.95 -0.02,-89.92 z"
         inkscape:connector-curvature="0"
         style="opacity:1;fill:#6d6e72" />
      <path
         id="path10"
         d="m 361.46,57.67 c 3.47,-1.47 7.85,0.54 8.53,4.36 1.36,4.81 -4.62,9.67 -8.96,6.88 -4.47,-2.19 -4.3,-9.51 0.43,-11.24 z"
         inkscape:connector-curvature="0"
         style="opacity:1;fill:#6d6e72" />
      <path
         id="path12"
         d="m 91.71,71.63 c 3.14,-2.53 6.35,-4.98 9.59,-7.4 0.04,5.64 0.03,11.29 0.01,16.93 5.07,0.04 10.14,0.02 15.22,0.04 -0.01,2.78 -0.01,5.55 -0.01,8.33 -5.06,0.01 -10.12,0.01 -15.18,0 -0.03,9.18 -0.01,18.35 -0.03,27.53 -0.05,2.5 0.28,5.55 2.68,6.95 2.97,1.45 6.41,0.8 9.58,0.77 0.4,2.64 0.83,5.27 1.26,7.9 -5.29,0.93 -11.07,1.8 -16.14,-0.48 -5.14,-2.62 -6.91,-8.8 -6.95,-14.17 -0.06,-9.5 0.03,-18.99 -0.03,-28.48 -2.93,0.02 -5.85,0 -8.76,-0.25 2.68,-3.13 5.68,-5.97 8.7,-8.77 0.08,-2.97 0.1,-5.93 0.06,-8.9 z"
         inkscape:connector-curvature="0"
         style="opacity:1;fill:#6d6e72" />
      <path
         id="path14"
         d="m 129.06,90.99 c 6.77,-11.08 23.26,-14.47 33.78,-6.81 8.08,5.54 9.95,16.41 9.08,25.54 -12.65,0.07 -25.31,-0.01 -37.97,0.04 0.41,5.82 3.81,11.64 9.43,13.78 7.76,2.9 16.35,1.46 23.99,-1.13 0.61,2.7 1.28,5.39 2,8.06 -10.31,3.52 -22.48,5.09 -32.4,-0.42 -5.96,-2.98 -10.09,-8.97 -11.75,-15.31 -1.35,-8 -1.05,-16.91 3.84,-23.75 m 9.49,1.54 c -2.62,2.67 -3.58,6.41 -4.5,9.91 9.74,0.07 19.47,0.05 29.21,0.02 -0.82,-3.85 -1.57,-8.24 -4.93,-10.76 -5.39,-4.98 -14.83,-4.6 -19.78,0.83 z"
         inkscape:connector-curvature="0"
         style="opacity:1;fill:#6d6e72" />
      <path
         id="path16"
         d="m 202.06,80.96 c 8.37,-2.45 17.4,0.12 24.63,4.57 -1.37,2.37 -2.65,4.77 -3.88,7.21 -6.84,-3.47 -15.25,-6.29 -22.54,-2.43 -10.42,4.56 -12.36,19.58 -5.9,28.15 3.17,3.66 7.74,6.31 12.65,6.58 5.78,0.64 11.36,-1.42 16.4,-4.03 1.05,2.49 2.15,4.97 3.33,7.4 -7.65,4.56 -16.91,6.59 -25.64,4.31 -6.23,-1.94 -12.31,-5.49 -15.72,-11.22 -5.14,-8.03 -5.4,-18.8 -0.95,-27.18 3.42,-6.85 10.28,-11.58 17.62,-13.36 z"
         inkscape:connector-curvature="0"
         style="opacity:1;fill:#6d6e72" />
      <path
         id="path18"
         d="m 319.86,80.88 c 6.43,-1.92 14.21,-0.67 18.9,4.4 3.35,3.27 3.93,8.23 3.98,12.69 0.01,11.58 0,23.17 -0.01,34.75 -3.2,0 -6.4,0 -9.6,0 -0.04,-10.58 0.06,-21.17 -0.03,-31.75 -0.31,-3.45 -0.01,-7.61 -2.97,-10.05 -3.06,-3.31 -8.16,-3.04 -12.12,-1.86 -4.1,1.79 -8.42,4.08 -10.95,7.88 -0.32,11.91 -0.02,23.85 -0.13,35.78 -3.24,0 -6.47,0 -9.69,0 -0.01,-17.18 -0.02,-34.36 0,-51.53 3.03,-0.01 6.06,-0.01 9.1,-0.01 0,2.56 0.02,5.11 0.01,7.67 3.95,-3.47 8.37,-6.59 13.51,-7.97 z"
         inkscape:connector-curvature="0"
         style="opacity:1;fill:#6d6e72" />
      <path
         id="path20"
         d="m 386.2,91.3 c 4.02,-5.98 10.9,-9.5 17.84,-10.84 7.65,-1.49 15.44,1.01 22.11,4.68 -0.85,2.61 -1.92,5.14 -3.26,7.54 -6.59,-2.88 -14.1,-6.03 -21.23,-3.04 -10.42,3.43 -14.21,17.43 -8.85,26.46 3.41,6.47 11.14,9.88 18.27,8.91 4.41,-0.19 8.37,-2.25 12.31,-4.04 1.2,2.49 2.12,5.12 2.77,7.82 -9.28,5.17 -21.13,6.93 -30.77,1.69 -7.3,-3.38 -12.36,-10.61 -13.96,-18.38 -1.53,-7.2 0.48,-14.9 4.77,-20.8 z"
         inkscape:connector-curvature="0"
         style="opacity:1;fill:#6d6e72" />
      <path
         id="path22"
         d="m 454.48,80.57 c 8.65,-1.82 18.3,1.07 24.31,7.62 9.41,10.08 9.34,27.43 -0.07,37.5 -10.15,11.27 -30.51,10.52 -39.52,-1.8 -8.85,-11.08 -7.19,-29.03 3.85,-38.05 3.36,-2.57 7.27,-4.42 11.43,-5.27 m 0.88,7.97 c -3.89,1.15 -7.56,3.64 -9.4,7.35 -2.96,4.79 -3.05,10.7 -2.29,16.11 1.12,5.37 4.52,10.69 9.91,12.55 5.17,2.23 11.42,1.31 15.89,-2.04 9.43,-7.82 9.16,-24.85 -1.01,-31.93 -3.74,-2.78 -8.71,-2.73 -13.1,-2.04 z"
         inkscape:connector-curvature="0"
         style="opacity:1;fill:#6d6e72" />
      <path
         id="path24"
         d="m 539.26,80.38 c 7.3,-1.32 15.13,0.85 20.9,5.46 12.28,9.88 12.56,30.83 0.94,41.33 -9.23,8.39 -24.46,8.66 -34.11,0.83 -12.33,-9.88 -12.72,-30.56 -1.21,-41.23 3.8,-3.32 8.52,-5.5 13.48,-6.39 m -0.75,8.34 c -3.8,1.47 -7.45,4 -9.09,7.86 -3.4,7.12 -3.12,16.2 1.28,22.85 5.48,7.68 17.95,8.5 24.33,1.49 7.8,-8.47 6.82,-24.39 -3.27,-30.7 -3.86,-2.58 -8.9,-2.36 -13.25,-1.5 z"
         inkscape:connector-curvature="0"
         style="opacity:1;fill:#6d6e72" />
      <path
         id="path26"
         d="m 589.49,89.52 c 4.38,-5.66 11.2,-9.15 18.32,-9.66 0.04,3.23 0.04,6.46 0.06,9.7 -5.81,0.47 -12.07,1.65 -16.38,5.89 -1.65,1.35 -1.39,3.59 -1.43,5.48 0.06,10.59 0.03,21.19 0.02,31.79 -3.32,0 -6.63,0 -9.94,0 -0.01,-17.18 0,-34.36 0,-51.53 3.12,-0.01 6.25,-0.01 9.38,-0.01 0.02,2.78 0.02,5.56 -0.03,8.34 z"
         inkscape:connector-curvature="0"
         style="opacity:1;fill:#6d6e72" />
      <path
         id="path28"
         d="m 359.06,81.18 c 3.21,0 6.41,0 9.62,0.01 0,17.17 0,34.35 0,51.53 -3.18,0 -6.37,0 -9.55,0 0.03,-17.18 -0.04,-34.36 -0.07,-51.54 z"
         inkscape:connector-curvature="0"
         style="opacity:1;fill:#6d6e72" />
    </g>
    <g
       id="#81dcf9ff">
      <path
         id="path31"
         d="M 42.87,185.92 C 52.9,178.86 62.61,171.25 73,164.74 c 12.51,-0.42 25.08,-0.09 37.61,-0.14 -7.74,7.75 -16.78,14.03 -24.91,21.36 -14.27,-0.02 -28.55,0.05 -42.83,-0.04 z"
         inkscape:connector-curvature="0"
         style="opacity:1;fill:#81dcf9" />
    </g>
    <g
       id="#81c7ebff">
      <path
         id="path34"
         d="m 110.61,164.6 c 12.95,-0.08 25.9,-0.07 38.84,0 -6.6,7.44 -13.96,14.18 -20.83,21.37 -14.3,-0.01 -28.61,0.01 -42.92,-0.01 8.13,-7.33 17.17,-13.61 24.91,-21.36 z"
         inkscape:connector-curvature="0"
         style="opacity:1;fill:#81c7eb" />
    </g>
    <g
       id="#81a6d0ff">
      <path
         id="path37"
         d="m 149.45,164.6 c 12.93,-0.07 25.87,-0.02 38.8,-0.03 -5.26,7.31 -11.27,14.05 -16.47,21.39 l -0.43,0 c -14.25,0.02 -28.49,0 -42.73,0.01 6.87,-7.19 14.23,-13.93 20.83,-21.37 z"
         inkscape:connector-curvature="0"
         style="opacity:1;fill:#81a6d0" />
    </g>
    <g
       id="#b296c7ff">
      <path
         id="path40"
         d="m 188.25,164.57 c 12.74,-0.01 25.47,-0.02 38.21,0.01 -3.54,7.35 -8.05,14.18 -11.88,21.38 -14.27,0.01 -28.53,0 -42.8,0 5.2,-7.34 11.21,-14.08 16.47,-21.39 z"
         inkscape:connector-curvature="0"
         style="opacity:1;fill:#b296c7" />
    </g>
    <g
       id="#c894bbff">
      <path
         id="path43"
         d="m 226.46,164.58 c 12.94,-0.02 25.88,-0.03 38.83,0 -2.31,7.27 -5.24,14.31 -8.04,21.39 -14.22,0.01 -28.44,0.01 -42.67,-0.01 3.83,-7.2 8.34,-14.03 11.88,-21.38 z"
         inkscape:connector-curvature="0"
         style="opacity:1;fill:#c894bb" />
    </g>
    <g
       id="#de92aeff">
      <path
         id="path46"
         d="m 265.29,164.58 c 12.93,-0.03 25.87,0 38.8,-0.01 -1.15,7.17 -2.47,14.31 -3.99,21.4 -14.29,0.01 -28.57,0 -42.85,0 2.8,-7.08 5.73,-14.12 8.04,-21.39 z"
         inkscape:connector-curvature="0"
         style="opacity:1;fill:#de92ae" />
    </g>
    <g
       id="#f78d97ff">
      <path
         id="path49"
         d="m 304.09,164.57 c 12.98,-0.03 25.96,-0.02 38.94,0 -0.04,7.14 -0.02,14.27 -0.03,21.41 -14.3,-0.02 -28.6,-0.02 -42.9,-0.01 1.52,-7.09 2.84,-14.23 3.99,-21.4 z"
         inkscape:connector-curvature="0"
         style="opacity:1;fill:#f78d97" />
    </g>
    <g
       id="#f9b292ff">
      <path
         id="path52"
         d="m 343.03,164.57 c 12.68,0.02 25.36,0.01 38.04,0.01 2.01,7.05 3.4,14.25 5.09,21.39 -14.39,0.02 -28.77,0.01 -43.16,0.01 0.01,-7.14 -0.01,-14.27 0.03,-21.41 z"
         inkscape:connector-curvature="0"
         style="opacity:1;fill:#f9b292" />
    </g>
    <g
       id="#ffe086ff">
      <path
         id="path55"
         d="m 381.07,164.58 c 12.94,-0.04 25.89,-0.01 38.84,-0.02 3.08,7.09 6.08,14.21 8.93,21.41 -14.23,-0.01 -28.45,0 -42.68,0 -1.69,-7.14 -3.08,-14.34 -5.09,-21.39 z"
         inkscape:connector-curvature="0"
         style="opacity:1;fill:#ffe086" />
    </g>
    <g
       id="#fff681ff">
      <path
         id="path58"
         d="m 419.91,164.56 c 12.91,-0.01 25.83,-0.04 38.75,0.01 3.96,7.28 9.23,13.8 12.65,21.37 -14.16,0.05 -28.32,0.02 -42.47,0.03 -2.85,-7.2 -5.85,-14.32 -8.93,-21.41 z"
         inkscape:connector-curvature="0"
         style="opacity:1;fill:#fff681" />
    </g>
    <g
       id="#e5ee95ff">
      <path
         id="path61"
         d="m 458.66,164.57 c 13.02,-0.01 26.04,-0.05 39.06,0.02 5.51,7.31 11.44,14.3 17.23,21.39 -14.41,-0.04 -28.83,0.03 -43.24,-0.04 l -0.4,0 c -3.42,-7.57 -8.69,-14.09 -12.65,-21.37 z"
         inkscape:connector-curvature="0"
         style="opacity:1;fill:#e5ee95" />
    </g>
    <g
       id="#c7e29fff">
      <path
         id="path64"
         d="m 497.72,164.59 c 12.8,-0.04 25.6,-0.05 38.4,0 6.77,7.37 14.51,13.8 21.07,21.38 -14.08,0.01 -28.16,-0.01 -42.24,0.01 -5.79,-7.09 -11.72,-14.08 -17.23,-21.39 z"
         inkscape:connector-curvature="0"
         style="opacity:1;fill:#c7e29f" />
    </g>
    <g
       id="#80d39fff">
      <path
         id="path67"
         d="m 536.12,164.59 c 13.11,-0.04 26.22,-0.05 39.33,0.01 7.46,8.02 16.55,14.26 24.82,21.37 -14.21,-0.01 -28.42,0 -42.63,0 l -0.45,0 c -6.56,-7.58 -14.3,-14.01 -21.07,-21.38 z"
         inkscape:connector-curvature="0"
         style="opacity:1;fill:#80d39f" />
    </g>
    <g
       id="#80c5a6ff">
      <path
         id="path70"
         d="m 575.45,164.6 c 11.85,-0.1 23.7,-0.01 35.56,-0.05 2.05,-0.22 3.85,0.87 5.44,2.05 8.83,6.52 17.98,12.61 26.71,19.29 -14.3,0.18 -28.59,0.02 -42.89,0.08 -8.27,-7.11 -17.36,-13.35 -24.82,-21.37 z"
         inkscape:connector-curvature="0"
         style="opacity:1;fill:#80c5a6" />
    </g>
    <g
       id="#00b9f2ff">
      <path
         id="path73"
         d="m 42.87,185.92 c 14.28,0.09 28.56,0.02 42.83,0.04 0.06,19.86 0.03,39.72 0.03,59.57 -14.27,0.02 -28.53,-0.03 -42.8,0.03 -0.13,-19.88 -0.01,-39.76 -0.06,-59.64 z"
         inkscape:connector-curvature="0"
         style="opacity:1;fill:#00b9f2" />
    </g>
    <g
       id="#008fd5ff">
      <path
         id="path76"
         d="m 85.7,185.96 c 14.31,0.02 28.62,0 42.92,0.01 -0.06,17.41 -0.07,34.81 0.01,52.22 0.02,11.01 0.05,22.03 -0.02,33.04 -14.3,-0.06 -28.59,0.01 -42.88,-0.04 0,-8.55 0,-17.1 0,-25.66 0,-19.85 0.03,-39.71 -0.03,-59.57 z"
         inkscape:connector-curvature="0"
         style="opacity:1;fill:#008fd5" />
    </g>
    <g
       id="#034da2ff">
      <path
         id="path79"
         d="m 128.62,185.97 c 14.24,-0.01 28.48,0.01 42.73,-0.01 0.14,17.41 0.02,34.82 0.06,52.22 -14.26,0.01 -28.52,0 -42.78,0.01 -0.08,-17.41 -0.07,-34.81 -0.01,-52.22 z"
         inkscape:connector-curvature="0"
         style="opacity:1;fill:#034da2" />
    </g>
    <g
       id="#662e91ff">
      <path
         id="path82"
         d="m 171.35,185.96 0.43,0 c 14.27,0 28.53,0.01 42.8,0 0.06,21.15 0.04,42.3 0.02,63.45 -14.39,0.05 -28.78,0 -43.16,0.03 -0.03,-3.75 -0.03,-7.51 -0.03,-11.26 -0.04,-17.4 0.08,-34.81 -0.06,-52.22 z"
         inkscape:connector-curvature="0"
         style="opacity:1;fill:#662e91" />
    </g>
    <g
       id="#942977ff">
      <path
         id="path85"
         d="m 214.58,185.96 c 14.23,0.02 28.45,0.02 42.67,0.01 0.2,24.77 -0.03,49.55 0.12,74.32 0.02,2.9 0.01,5.79 0.01,8.69 -14.26,0.04 -28.52,0.01 -42.78,0.02 -0.01,-6.53 -0.02,-13.06 0,-19.59 0.02,-21.15 0.04,-42.3 -0.02,-63.45 z"
         inkscape:connector-curvature="0"
         style="opacity:1;fill:#942977" />
    </g>
    <g
       id="#bf245eff">
      <path
         id="path88"
         d="m 257.25,185.97 c 14.28,0 28.56,0.01 42.85,0 -0.02,19.42 -0.06,38.84 0.01,58.25 0.03,5.36 0.01,10.71 0.01,16.07 -14.25,0.02 -28.5,0.01 -42.75,0 -0.15,-24.77 0.08,-49.55 -0.12,-74.32 z"
         inkscape:connector-curvature="0"
         style="opacity:1;fill:#bf245e" />
    </g>
    <g
       id="#ec1b30ff">
      <path
         id="path91"
         d="m 300.1,185.97 c 14.3,-0.01 28.6,-0.01 42.9,0.01 -0.01,19.41 0.01,38.82 -0.01,58.23 -14.29,0.03 -28.59,0.01 -42.88,0.01 -0.07,-19.41 -0.03,-38.83 -0.01,-58.25 z"
         inkscape:connector-curvature="0"
         style="opacity:1;fill:#ec1b30" />
    </g>
    <g
       id="#f36523ff">
      <path
         id="path94"
         d="m 343,185.98 c 14.39,0 28.77,0.01 43.16,-0.01 0.07,18.22 -0.03,36.45 0.05,54.68 0.03,6.97 0,13.93 0.03,20.89 -14.41,0.12 -28.82,0.01 -43.23,0.06 -0.02,-5.79 -0.01,-11.59 -0.02,-17.39 0.02,-19.41 0,-38.82 0.01,-58.23 z"
         inkscape:connector-curvature="0"
         style="opacity:1;fill:#f36523" />
    </g>
    <g
       id="#ffc20fff">
      <path
         id="path97"
         d="m 386.16,185.97 c 14.23,0 28.45,-0.01 42.68,0 -0.18,18.23 0,36.46 -0.09,54.7 -14.18,-0.04 -28.36,-0.01 -42.54,-0.02 -0.08,-18.23 0.02,-36.46 -0.05,-54.68 z"
         inkscape:connector-curvature="0"
         style="opacity:1;fill:#ffc20f" />
    </g>
    <g
       id="#ffec01ff">
      <path
         id="path100"
         d="m 428.84,185.97 c 14.15,-0.01 28.31,0.02 42.47,-0.03 l 0.4,0 c -0.25,16.2 -0.1,32.4 -0.08,48.6 0.04,6.53 -0.01,13.07 0.03,19.6 -14.32,-0.13 -28.66,0.34 -42.97,-0.25 0.1,-4.41 0.07,-8.81 0.06,-13.22 0.09,-18.24 -0.09,-36.47 0.09,-54.7 z"
         inkscape:connector-curvature="0"
         style="opacity:1;fill:#ffec01" />
    </g>
    <g
       id="#cadb2aff">
      <path
         id="path103"
         d="m 471.71,185.94 c 14.41,0.07 28.83,0 43.24,0.04 -0.06,13.25 0,26.5 -0.03,39.75 -0.01,2.94 -0.01,5.87 -0.01,8.81 -14.43,-0.01 -28.86,-0.01 -43.28,0 -0.02,-16.2 -0.17,-32.4 0.08,-48.6 z"
         inkscape:connector-curvature="0"
         style="opacity:1;fill:#cadb2a" />
    </g>
    <g
       id="#8ec63fff">
      <path
         id="path106"
         d="m 514.95,185.98 c 14.08,-0.02 28.16,0 42.24,-0.01 l 0.45,0 c -0.11,13.25 -0.01,26.5 -0.06,39.76 -14.22,0.01 -28.44,0 -42.66,0 0.03,-13.25 -0.03,-26.5 0.03,-39.75 z"
         inkscape:connector-curvature="0"
         style="opacity:1;fill:#8ec63f" />
    </g>
    <g
       id="#00a640ff">
      <path
         id="path109"
         d="m 557.64,185.97 c 14.21,0 28.42,-0.01 42.63,0 0.09,20.25 -0.01,40.5 0.09,60.74 -14.26,0.01 -28.52,0.01 -42.77,0 0.01,-6.99 0.01,-13.99 -0.01,-20.98 0.05,-13.26 -0.05,-26.51 0.06,-39.76 z"
         inkscape:connector-curvature="0"
         style="opacity:1;fill:#00a640" />
    </g>
    <g
       id="#008a4cff">
      <path
         id="path112"
         d="m 600.27,185.97 c 14.3,-0.06 28.59,0.1 42.89,-0.08 -0.08,25.64 -0.01,51.28 -0.04,76.92 -14.25,-0.01 -28.5,0 -42.75,-0.01 0.01,-5.36 0.02,-10.73 -0.01,-16.09 -0.1,-20.24 0,-40.49 -0.09,-60.74 z"
         inkscape:connector-curvature="0"
         style="opacity:1;fill:#008a4c" />
    </g>
  </g>
</svg>
